<svg xmlns="http://www.w3.org/2000/svg" width="18" height="18" viewBox="0 0 18 18" fill="none">
  <path d="M16.9105 12.9648V15.3648C16.9114 15.5876 16.8658 15.8081 16.7765 16.0122C16.6872 16.2164 16.5563 16.3996 16.3922 16.5503C16.228 16.7009 16.0342 16.8155 15.8231 16.8869C15.612 16.9583 15.3884 16.9848 15.1665 16.9648C12.7048 16.6973 10.3401 15.8561 8.26249 14.5088C6.32956 13.2805 4.69076 11.6417 3.46249 9.70876C2.11048 7.62173 1.26909 5.24556 1.00649 2.77276C0.986502 2.55154 1.01279 2.32857 1.08369 2.11806C1.15459 1.90755 1.26855 1.71412 1.41831 1.55006C1.56806 1.38601 1.75034 1.25493 1.95353 1.16518C2.15671 1.07543 2.37637 1.02897 2.59849 1.02876H4.99849C5.38674 1.02494 5.76313 1.16243 6.0575 1.41559C6.35188 1.66875 6.54415 2.02032 6.59849 2.40476C6.69979 3.17282 6.88765 3.92695 7.15849 4.65276C7.26613 4.9391 7.28942 5.2503 7.22562 5.54947C7.16181 5.84864 7.01358 6.12325 6.79849 6.34076L5.78249 7.35676C6.92134 9.3596 8.57966 11.0179 10.5825 12.1568L11.5985 11.1408C11.816 10.9257 12.0906 10.7774 12.3898 10.7136C12.689 10.6498 13.0002 10.6731 13.2865 10.7808C14.0123 11.0516 14.7664 11.2395 15.5345 11.3408C15.9231 11.3956 16.278 11.5913 16.5317 11.8908C16.7854 12.1902 16.9202 12.5724 16.9105 12.9648Z" stroke="#8492A6" stroke-linecap="round" stroke-linejoin="round"/>
</svg>