<svg width="36" height="37" viewBox="0 0 36 37" fill="none" xmlns="http://www.w3.org/2000/svg">
<rect x="0.5" y="1.47588" width="35" height="35" rx="17.5" stroke="#9E9E9E"/>
<path d="M24.1401 21.5708C23.716 22.5737 23.0526 23.4576 22.208 24.145C21.3634 24.8324 20.3633 25.3024 19.2951 25.5139C18.2269 25.7255 17.1231 25.6722 16.0802 25.3586C15.0374 25.0451 14.0872 24.4808 13.3128 23.7152C12.5384 22.9496 11.9633 22.0059 11.6379 20.9667C11.3124 19.9275 11.2465 18.8244 11.4459 17.7538C11.6452 16.6833 12.1038 15.6778 12.7815 14.8254C13.4592 13.973 14.3354 13.2996 15.3335 12.8641M24.6668 18.9774C24.6668 18.1019 24.4944 17.235 24.1593 16.4262C23.8243 15.6174 23.3332 14.8824 22.7142 14.2634C22.0951 13.6443 21.3602 13.1533 20.5514 12.8182C19.7425 12.4832 18.8756 12.3108 18.0001 12.3108V18.9774H24.6668Z" stroke="black" stroke-width="1.33333" stroke-linecap="round" stroke-linejoin="round"/>
</svg>
