<svg width="248" height="117" viewBox="0 0 248 117" fill="none" xmlns="http://www.w3.org/2000/svg">
<path d="M0 80.1648C0 77.9556 1.79086 76.1648 4 76.1648H36C38.2091 76.1648 40 77.9556 40 80.1648V88.1648H0V80.1648Z" fill="#BFDAFF"/>
<rect y="88.1648" width="40" height="9.27841" fill="#68A8FF"/>
<rect y="97.4432" width="40" height="18.5568" fill="#2F80ED"/>
<path d="M52 48.5728C52 46.3636 53.7909 44.5728 56 44.5728H88C90.2091 44.5728 92 46.3636 92 48.5728V52.8483H52V48.5728Z" fill="#BFDAFF"/>
<rect x="52" y="52.8483" width="40" height="17.1517" fill="#68A8FF"/>
<rect x="52" y="70" width="40" height="46" fill="#2F80ED"/>
<path d="M104 30.8918C104 28.6826 105.791 26.8918 108 26.8918H140C142.209 26.8918 144 28.6826 144 30.8918V54.8918H104V30.8918Z" fill="#BFDAFF"/>
<rect x="104" y="54.8918" width="40" height="21.0103" fill="#68A8FF"/>
<rect x="104" y="75.9021" width="40" height="40.2062" fill="#2F80ED"/>
<path d="M156 11.8627C156 9.65351 157.791 7.86266 160 7.86266H192C194.209 7.86266 196 9.65352 196 11.8627V19.2547H156V11.8627Z" fill="#BFDAFF"/>
<rect x="156" y="19.2547" width="40" height="46.7453" fill="#2F80ED"/>
<rect x="156" y="66" width="40" height="50" fill="#68A8FF"/>
<path d="M217 32.7056C217 30.4965 218.791 28.7056 221 28.7056H244C246.209 28.7056 248 30.4965 248 32.7056V45.7056H217V32.7056Z" fill="#BFDAFF"/>
<rect x="217" y="45.7056" width="31" height="50" fill="#2F80ED"/>
<rect x="216.8" y="95.7056" width="31.2" height="20.2944" fill="#68A8FF"/>
</svg>
