<svg width="36" height="37" viewBox="0 0 36 37" fill="none" xmlns="http://www.w3.org/2000/svg">
<rect x="0.5" y="1.47588" width="35" height="35" rx="17.5" stroke="#9E9E9E"/>
<path d="M24.6666 18.9759H20.6666L19.3333 20.9759H16.6666L15.3333 18.9759H11.3333M24.6666 18.9759V22.9759C24.6666 23.3295 24.5262 23.6686 24.2761 23.9187C24.0261 24.1687 23.6869 24.3092 23.3333 24.3092H12.6666C12.313 24.3092 11.9739 24.1687 11.7238 23.9187C11.4738 23.6686 11.3333 23.3295 11.3333 22.9759V18.9759M24.6666 18.9759L22.3666 14.3825C22.2563 14.1604 22.0861 13.9735 21.8753 13.8427C21.6645 13.712 21.4214 13.6427 21.1733 13.6425H14.8266C14.5786 13.6427 14.3355 13.712 14.1247 13.8427C13.9139 13.9735 13.7437 14.1604 13.6333 14.3825L11.3333 18.9759" stroke="black" stroke-width="1.33333" stroke-linecap="round" stroke-linejoin="round"/>
</svg>
