<svg width="36" height="37" viewBox="0 0 36 37" fill="none" xmlns="http://www.w3.org/2000/svg">
<rect x="0.5" y="1.47588" width="35" height="35" rx="17.5" stroke="#9E9E9E"/>
<path d="M19.1533 24.9771C19.0361 25.1791 18.8679 25.3468 18.6655 25.4634C18.4631 25.58 18.2336 25.6414 18 25.6414C17.7664 25.6414 17.5369 25.58 17.3345 25.4634C17.1321 25.3468 16.9639 25.1791 16.8467 24.9771M22 16.3104C22 15.2495 21.5786 14.2321 20.8284 13.482C20.0783 12.7318 19.0609 12.3104 18 12.3104C16.9391 12.3104 15.9217 12.7318 15.1716 13.482C14.4214 14.2321 14 15.2495 14 16.3104C14 20.9771 12 22.3104 12 22.3104H24C24 22.3104 22 20.9771 22 16.3104Z" stroke="black" stroke-width="1.33333" stroke-linecap="round" stroke-linejoin="round"/>
</svg>
