<svg width="41" height="40" viewBox="0 0 41 40" fill="none" xmlns="http://www.w3.org/2000/svg">
<rect x="0.333344" width="40" height="40" rx="20" fill="#BFDAFF" fill-opacity="0.25"/>
<path d="M20.3467 13.94C18.14 13.94 16.3467 15.7333 16.3467 17.94V19.8667C16.3467 20.2733 16.1733 20.8933 15.9667 21.24L15.2 22.5133C14.7267 23.3 15.0533 24.1733 15.92 24.4667C18.7933 25.4267 21.8933 25.4267 24.7667 24.4667C25.5733 24.2 25.9267 23.2467 25.4867 22.5133L24.72 21.24C24.52 20.8933 24.3467 20.2733 24.3467 19.8667V17.94C24.3467 15.74 22.5467 13.94 20.3467 13.94Z" stroke="#2F80ED" stroke-width="1.5" stroke-miterlimit="10" stroke-linecap="round"/>
<path d="M21.58 14.1333C21.3733 14.0733 21.16 14.0267 20.94 14C20.3 13.92 19.6867 13.9667 19.1133 14.1333C19.3067 13.64 19.7867 13.2933 20.3467 13.2933C20.9067 13.2933 21.3867 13.64 21.58 14.1333Z" stroke="#2F80ED" stroke-width="1.5" stroke-miterlimit="10" stroke-linecap="round" stroke-linejoin="round"/>
<path d="M22.3467 24.7067C22.3467 25.8067 21.4467 26.7067 20.3467 26.7067C19.8 26.7067 19.2933 26.48 18.9333 26.12C18.5733 25.76 18.3467 25.2533 18.3467 24.7067" stroke="#2F80ED" stroke-width="1.5" stroke-miterlimit="10"/>
</svg>
