<svg width="840" height="182" viewBox="0 0 840 182" fill="none" xmlns="http://www.w3.org/2000/svg">
<g clip-path="url(#clip0_1_57)">
<rect width="840" height="182" rx="10" fill="#2F80ED"/>
<path d="M723 45.5C723 45.5 725.207 66.0997 733.804 74.6964C742.4 83.293 763 85.5 763 85.5C763 85.5 742.4 87.707 733.804 96.3036C725.207 104.9 723 125.5 723 125.5C723 125.5 720.793 104.9 712.196 96.3036C703.6 87.707 683 85.5 683 85.5C683 85.5 703.6 83.293 712.196 74.6964C720.793 66.0997 723 45.5 723 45.5Z" fill="white" fill-opacity="0.25"/>
<path d="M793 93.5C793 93.5 795.207 114.1 803.804 122.696C812.4 131.293 833 133.5 833 133.5C833 133.5 812.4 135.707 803.804 144.304C795.207 152.9 793 173.5 793 173.5C793 173.5 790.793 152.9 782.196 144.304C773.6 135.707 753 133.5 753 133.5C753 133.5 773.6 131.293 782.196 122.696C790.793 114.1 793 93.5 793 93.5Z" fill="white" fill-opacity="0.1"/>
<path d="M652 122.5C652 122.5 654.207 152.885 662.804 165.565C671.4 178.245 692 181.5 692 181.5C692 181.5 671.4 184.755 662.804 197.435C654.207 210.115 652 240.5 652 240.5C652 240.5 649.793 210.115 641.196 197.435C632.6 184.755 612 181.5 612 181.5C612 181.5 632.6 178.245 641.196 165.565C649.793 152.885 652 122.5 652 122.5Z" fill="white" fill-opacity="0.1"/>
<path d="M783.5 -58.5C783.5 -58.5 785.183 -28.1154 791.738 -15.4354C798.293 -2.75534 814 0.499996 814 0.499996C814 0.499996 798.293 3.75534 791.738 16.4354C785.183 29.1154 783.5 59.5 783.5 59.5C783.5 59.5 781.817 29.1154 775.262 16.4354C768.707 3.75534 753 0.499996 753 0.499996C753 0.499996 768.707 -2.75534 775.262 -15.4354C781.817 -28.1154 783.5 -58.5 783.5 -58.5Z" fill="white" fill-opacity="0.1"/>
<path d="M652.5 20.5C652.5 20.5 654.183 35.9498 660.738 42.3973C667.293 48.8447 683 50.5 683 50.5C683 50.5 667.293 52.1553 660.738 58.6027C654.183 65.0502 652.5 80.5 652.5 80.5C652.5 80.5 650.817 65.0502 644.262 58.6027C637.707 52.1553 622 50.5 622 50.5C622 50.5 637.707 48.8447 644.262 42.3973C650.817 35.9498 652.5 20.5 652.5 20.5Z" fill="white" fill-opacity="0.1"/>
</g>
<defs>
<clipPath id="clip0_1_57">
<rect width="840" height="182" rx="10" fill="white"/>
</clipPath>
</defs>
</svg>
