<svg width="20" height="21" viewBox="0 0 20 21" fill="none" xmlns="http://www.w3.org/2000/svg">
<rect y="0.21051" width="20" height="20" rx="10" fill="#0D5EAF"/>
<g clip-path="url(#clip0_0_1781)">
<path d="M8.04414 5.65582V14.2105H6.49141V7.46637L4.43477 8.14606V6.89215L7.86836 5.65582H8.04414ZM15.9637 9.21246V10.648C15.9637 11.3043 15.8973 11.8648 15.7645 12.3297C15.6316 12.7945 15.4402 13.1754 15.1902 13.4722C14.9402 13.7652 14.6414 13.982 14.2938 14.1226C13.9461 14.2593 13.5594 14.3277 13.1336 14.3277C12.7938 14.3277 12.4773 14.2847 12.1844 14.1988C11.8914 14.1089 11.6277 13.9722 11.3934 13.7886C11.1629 13.6011 10.9637 13.3629 10.7957 13.0738C10.6316 12.7847 10.5047 12.439 10.4148 12.0367C10.3289 11.6343 10.2859 11.1714 10.2859 10.648V9.21246C10.2859 8.55621 10.3523 7.99762 10.4852 7.53668C10.6219 7.07574 10.8152 6.69879 11.0652 6.40582C11.3152 6.11285 11.6141 5.89996 11.9617 5.76715C12.3094 5.63043 12.6961 5.56207 13.1219 5.56207C13.4656 5.56207 13.782 5.60504 14.0711 5.69098C14.3641 5.77692 14.6258 5.91168 14.8563 6.09528C15.0906 6.27496 15.2898 6.50934 15.4539 6.7984C15.618 7.08356 15.743 7.42731 15.8289 7.82965C15.9188 8.22809 15.9637 8.68903 15.9637 9.21246ZM14.4168 10.8589V8.99567C14.4168 8.66754 14.3973 8.38239 14.3582 8.1402C14.323 7.8941 14.2703 7.68512 14.2 7.51324C14.1297 7.34137 14.0418 7.2027 13.9363 7.09723C13.8309 6.98785 13.7098 6.90778 13.573 6.85699C13.4363 6.80621 13.2859 6.78082 13.1219 6.78082C12.9188 6.78082 12.7371 6.82184 12.577 6.90387C12.4168 6.98199 12.282 7.10699 12.1727 7.27887C12.0633 7.45074 11.9793 7.67926 11.9207 7.96442C11.866 8.24567 11.8387 8.58942 11.8387 8.99567V10.8589C11.8387 11.1871 11.8563 11.4742 11.8914 11.7203C11.9305 11.9664 11.9852 12.1773 12.0555 12.3531C12.1297 12.5289 12.2176 12.6734 12.3191 12.7867C12.4246 12.8961 12.5457 12.9781 12.6824 13.0328C12.8191 13.0836 12.9695 13.1089 13.1336 13.1089C13.3406 13.1089 13.5223 13.0679 13.6785 12.9859C13.8387 12.9039 13.9734 12.775 14.0828 12.5992C14.1922 12.4195 14.2742 12.1871 14.3289 11.9019C14.3875 11.6129 14.4168 11.2652 14.4168 10.8589Z" fill="#E5E7EB"/>
</g>
<defs>
<clipPath id="clip0_0_1781">
<rect width="14" height="14" fill="white" transform="translate(3 3.21051)"/>
</clipPath>
</defs>
</svg>
