<svg width="37" height="37" viewBox="0 0 37 37" fill="none" xmlns="http://www.w3.org/2000/svg">
<rect x="0.5" y="0.71051" width="35.39" height="35.39" rx="17.1071" fill="#0D5EAF"/>
<rect x="0.5" y="0.71051" width="35.39" height="35.39" rx="17.1071" stroke="#E5E7EB"/>
<path d="M16.1462 17.7226L18.195 19.7713L25.0242 12.9422" stroke="#E5E7EB" stroke-width="1.36583" stroke-linecap="round" stroke-linejoin="round"/>
<path d="M24.3412 18.4055V23.1859C24.3412 23.5482 24.1973 23.8956 23.9412 24.1517C23.685 24.4078 23.3376 24.5517 22.9754 24.5517H13.4145C13.0523 24.5517 12.7049 24.4078 12.4487 24.1517C12.1926 23.8956 12.0487 23.5482 12.0487 23.1859V13.6251C12.0487 13.2628 12.1926 12.9154 12.4487 12.6593C12.7049 12.4031 13.0523 12.2592 13.4145 12.2592H20.9266" stroke="#E5E7EB" stroke-width="1.36583" stroke-linecap="round" stroke-linejoin="round"/>
</svg>
