<svg width="24" height="24" viewBox="0 0 24 24" fill="none" xmlns="http://www.w3.org/2000/svg">
<path fill-rule="evenodd" clip-rule="evenodd" d="M11.2335 16.4267L17.3644 10.2958C17.6468 10.0134 18.104 10.0134 18.3856 10.2958L19.1642 11.0743C19.4466 11.3567 19.4466 11.8139 19.1642 12.0956L13.0318 18.228C12.8419 18.4179 12.6028 18.5508 12.3421 18.6122L11.1519 18.8931C10.8023 18.9755 10.4881 18.662 10.5697 18.3117L10.8485 17.1193C10.9099 16.8572 11.0435 16.6174 11.2335 16.4267V16.4267Z" stroke="#0F6ECD" stroke-width="1.5" stroke-linecap="round" stroke-linejoin="round"/>
<path d="M16.216 11.4384L18.0216 13.2439" stroke="#0F6ECD" stroke-width="1.5" stroke-linecap="round" stroke-linejoin="round"/>
<path d="M8.61111 19H8.50206C6.56794 19 5 17.4321 5 15.4979V15.4979C5 14.1142 5.81467 12.8597 7.08 12.2978L9.94 11.0267C10.889 10.6049 11.5 9.66456 11.5 8.62672V8.62672C11.5 7.17578 10.3242 6 8.87328 6H8.61111" stroke="#0D5EAF" stroke-width="1.5" stroke-linecap="round" stroke-linejoin="round"/>
</svg>
