<svg width="37" height="37" viewBox="0 0 37 37" fill="none" xmlns="http://www.w3.org/2000/svg">
<rect width="36.1053" height="36.1053" rx="17.6071" fill="#E7EBF2"/>
<g clip-path="url(#clip0_0_1756)">
<path d="M18.0526 10.671V25.4342" stroke="#3F5E94" stroke-width="1.34211" stroke-linecap="round" stroke-linejoin="round"/>
<path d="M21.4079 13.3551H16.3751C15.7521 13.3551 15.1547 13.6026 14.7143 14.0431C14.2738 14.4835 14.0264 15.0809 14.0264 15.7038C14.0264 16.3267 14.2738 16.9241 14.7143 17.3646C15.1547 17.8051 15.7521 18.0525 16.3751 18.0525H19.7303C20.3532 18.0525 20.9506 18.3 21.3911 18.7404C21.8315 19.1809 22.079 19.7783 22.079 20.4012C22.079 21.0241 21.8315 21.6215 21.3911 22.062C20.9506 22.5024 20.3532 22.7499 19.7303 22.7499H14.0264" stroke="#3F5E94" stroke-width="1.34211" stroke-linecap="round" stroke-linejoin="round"/>
</g>
<defs>
<clipPath id="clip0_0_1756">
<rect width="16.1053" height="16.1053" fill="white" transform="translate(10 10)"/>
</clipPath>
</defs>
</svg>
