<svg xmlns="http://www.w3.org/2000/svg" width="33" height="32" viewBox="0 0 33 32" fill="none">
  <path d="M19.1667 2.66672H8.50001C7.79277 2.66672 7.11449 2.94767 6.61439 3.44777C6.11429 3.94786 5.83334 4.62614 5.83334 5.33338V26.6667C5.83334 27.374 6.11429 28.0522 6.61439 28.5523C7.11449 29.0524 7.79277 29.3334 8.50001 29.3334H24.5C25.2073 29.3334 25.8855 29.0524 26.3856 28.5523C26.8857 28.0522 27.1667 27.374 27.1667 26.6667V10.6667L19.1667 2.66672Z" stroke="#2E96C9" stroke-width="2" stroke-linecap="round" stroke-linejoin="round"/>
  <path d="M19.1667 2.66672V10.6667H27.1667" stroke="#2E96C9" stroke-width="2" stroke-linecap="round" stroke-linejoin="round"/>
  <path d="M21.8334 17.3334H11.1667" stroke="#2E96C9" stroke-width="2" stroke-linecap="round" stroke-linejoin="round"/>
  <path d="M21.8334 22.6667H11.1667" stroke="#2E96C9" stroke-width="2" stroke-linecap="round" stroke-linejoin="round"/>
  <path d="M13.8334 12H12.5H11.1667" stroke="#2E96C9" stroke-width="2" stroke-linecap="round" stroke-linejoin="round"/>
</svg>