<svg xmlns="http://www.w3.org/2000/svg" width="112" height="30" viewBox="0 0 112 30" fill="none">
  <path d="M0 29.5455V0.454551H7.03125V23.8352H19.1335V29.5455H0Z" fill="black"/>
  <path d="M49.098 15C49.098 18.2008 48.4825 20.9138 47.2514 23.1392C46.0204 25.3646 44.3537 27.0549 42.2514 28.2102C40.1586 29.3655 37.8101 29.9432 35.206 29.9432C32.5923 29.9432 30.2391 29.3608 28.1463 28.196C26.0535 27.0313 24.3916 25.3409 23.1605 23.125C21.9389 20.8996 21.3281 18.1913 21.3281 15C21.3281 11.7992 21.9389 9.08618 23.1605 6.8608C24.3916 4.63542 26.0535 2.94508 28.1463 1.78978C30.2391 0.634475 32.5923 0.0568237 35.206 0.0568237C37.8101 0.0568237 40.1586 0.634475 42.2514 1.78978C44.3537 2.94508 46.0204 4.63542 47.2514 6.8608C48.4825 9.08618 49.098 11.7992 49.098 15ZM41.9105 15C41.9105 13.1061 41.6406 11.5057 41.1009 10.1989C40.5705 8.89205 39.8035 7.90247 38.7997 7.23012C37.8054 6.55777 36.6075 6.2216 35.206 6.2216C33.8139 6.2216 32.616 6.55777 31.6122 7.23012C30.6084 7.90247 29.8366 8.89205 29.2969 10.1989C28.7666 11.5057 28.5014 13.1061 28.5014 15C28.5014 16.8939 28.7666 18.4943 29.2969 19.8011C29.8366 21.108 30.6084 22.0975 31.6122 22.7699C32.616 23.4422 33.8139 23.7784 35.206 23.7784C36.6075 23.7784 37.8054 23.4422 38.7997 22.7699C39.8035 22.0975 40.5705 21.108 41.1009 19.8011C41.6406 18.4943 41.9105 16.8939 41.9105 15Z" fill="black"/>
  <path d="M72.294 9.95739C72.133 9.3608 71.8963 8.83523 71.5838 8.38069C71.2713 7.91667 70.8878 7.52368 70.4332 7.20171C69.9787 6.87974 69.4579 6.63826 68.8707 6.47728C68.2836 6.30682 67.6397 6.2216 66.9389 6.2216C65.5279 6.2216 64.3063 6.56251 63.2741 7.24432C62.2514 7.92614 61.4607 8.92046 60.902 10.2273C60.3433 11.5246 60.0639 13.1013 60.0639 14.9574C60.0639 16.8229 60.3338 18.4138 60.8736 19.7301C61.4134 21.0464 62.1946 22.0502 63.2173 22.7415C64.2401 23.4328 65.4806 23.7784 66.9389 23.7784C68.2268 23.7784 69.3158 23.5701 70.206 23.1534C71.1056 22.7273 71.7874 22.126 72.2514 21.3494C72.7154 20.5729 72.9474 19.6591 72.9474 18.608L74.2543 18.7642H67.1804V13.6364H79.723V17.4858C79.723 20.09 79.169 22.3201 78.0611 24.1761C76.9626 26.0322 75.4474 27.4574 73.5156 28.4517C71.5933 29.446 69.3821 29.9432 66.8821 29.9432C64.1075 29.9432 61.669 29.3419 59.5668 28.1392C57.4645 26.9366 55.8262 25.2225 54.652 22.9972C53.4777 20.7623 52.8906 18.1108 52.8906 15.0426C52.8906 12.6563 53.2457 10.5398 53.956 8.69319C54.6662 6.83713 55.6558 5.26516 56.9247 3.97728C58.2031 2.6894 59.6804 1.71402 61.3565 1.05114C63.0421 0.388263 64.8556 0.0568237 66.7969 0.0568237C68.4825 0.0568237 70.0497 0.298301 71.4986 0.781256C72.9569 1.26421 74.2448 1.94603 75.3622 2.82671C76.4891 3.70739 77.4029 4.75379 78.1037 5.96592C78.8045 7.17804 79.2401 8.50853 79.4105 9.95739H72.294Z" fill="black"/>
  <path d="M111.325 15C111.325 18.2008 110.709 20.9138 109.478 23.1392C108.247 25.3646 106.58 27.0549 104.478 28.2102C102.385 29.3655 100.037 29.9432 97.4325 29.9432C94.8189 29.9432 92.4657 29.3608 90.3729 28.196C88.2801 27.0313 86.6181 25.3409 85.3871 23.125C84.1655 20.8996 83.5547 18.1913 83.5547 15C83.5547 11.7992 84.1655 9.08618 85.3871 6.8608C86.6181 4.63542 88.2801 2.94508 90.3729 1.78978C92.4657 0.634475 94.8189 0.0568237 97.4325 0.0568237C100.037 0.0568237 102.385 0.634475 104.478 1.78978C106.58 2.94508 108.247 4.63542 109.478 6.8608C110.709 9.08618 111.325 11.7992 111.325 15ZM104.137 15C104.137 13.1061 103.867 11.5057 103.327 10.1989C102.797 8.89205 102.03 7.90247 101.026 7.23012C100.032 6.55777 98.834 6.2216 97.4325 6.2216C96.0405 6.2216 94.8426 6.55777 93.8388 7.23012C92.835 7.90247 92.0632 8.89205 91.5234 10.1989C90.9931 11.5057 90.728 13.1061 90.728 15C90.728 16.8939 90.9931 18.4943 91.5234 19.8011C92.0632 21.108 92.835 22.0975 93.8388 22.7699C94.8426 23.4422 96.0405 23.7784 97.4325 23.7784C98.834 23.7784 100.032 23.4422 101.026 22.7699C102.03 22.0975 102.797 21.108 103.327 19.8011C103.867 18.4943 104.137 16.8939 104.137 15Z" fill="black"/>
</svg>