<svg xmlns="http://www.w3.org/2000/svg" width="221" height="182" viewBox="0 0 221 182" fill="none">
  <path d="M111 45.5C111 45.5 113.207 66.0997 121.804 74.6964C130.4 83.293 151 85.5 151 85.5C151 85.5 130.4 87.707 121.804 96.3036C113.207 104.9 111 125.5 111 125.5C111 125.5 108.793 104.9 100.196 96.3036C91.5997 87.707 71 85.5 71 85.5C71 85.5 91.5997 83.293 100.196 74.6964C108.793 66.0997 111 45.5 111 45.5Z" fill="white" fill-opacity="0.25"/>
  <path d="M181 93.5C181 93.5 183.207 114.1 191.804 122.696C200.4 131.293 221 133.5 221 133.5C221 133.5 200.4 135.707 191.804 144.304C183.207 152.9 181 173.5 181 173.5C181 173.5 178.793 152.9 170.196 144.304C161.6 135.707 141 133.5 141 133.5C141 133.5 161.6 131.293 170.196 122.696C178.793 114.1 181 93.5 181 93.5Z" fill="white" fill-opacity="0.1"/>
  <path d="M40 122.5C40 122.5 42.207 152.885 50.8036 165.565C59.4003 178.245 80 181.5 80 181.5C80 181.5 59.4003 184.755 50.8036 197.435C42.207 210.115 40 240.5 40 240.5C40 240.5 37.793 210.115 29.1964 197.435C20.5997 184.755 0 181.5 0 181.5C0 181.5 20.5997 178.245 29.1964 165.565C37.793 152.885 40 122.5 40 122.5Z" fill="white" fill-opacity="0.1"/>
  <path d="M171.5 -58.5C171.5 -58.5 173.183 -28.1154 179.738 -15.4354C186.293 -2.75534 202 0.499996 202 0.499996C202 0.499996 186.293 3.75534 179.738 16.4354C173.183 29.1154 171.5 59.5 171.5 59.5C171.5 59.5 169.817 29.1154 163.262 16.4354C156.707 3.75534 141 0.499996 141 0.499996C141 0.499996 156.707 -2.75534 163.262 -15.4354C169.817 -28.1154 171.5 -58.5 171.5 -58.5Z" fill="white" fill-opacity="0.1"/>
  <path d="M40.5 20.5C40.5 20.5 42.1828 35.9498 48.7378 42.3973C55.2927 48.8447 71 50.5 71 50.5C71 50.5 55.2927 52.1553 48.7378 58.6027C42.1828 65.0502 40.5 80.5 40.5 80.5C40.5 80.5 38.8172 65.0502 32.2622 58.6027C25.7073 52.1553 10 50.5 10 50.5C10 50.5 25.7073 48.8447 32.2622 42.3973C38.8172 35.9498 40.5 20.5 40.5 20.5Z" fill="white" fill-opacity="0.1"/>
</svg>